name C:\Users\antoi\Documents\MyRepositories\upper-imu-dc\Results\main_tracking\Case_90\kinematics.mot
datacolumns 10
datarows 18
range 1.70000000 1.87000000
endheader 
time	clav_prot	clav_elev	scapula_abduction	scapula_elevation	scapula_upward_rot	scapula_winging	plane_elv	shoulder_elv	axial_rot	
          1.70000000	        -23.07947587	          6.54867544	        -11.63491830	          1.93218205	         21.63728083	          1.03470195	         14.61656624	         12.57541366	         26.59859324	
          1.71000000	        -23.05606112	          6.61676847	        -11.57378090	          1.96698835	         21.70851401	          1.01071587	         14.60319159	         12.48767973	         26.44612255	
          1.72000000	        -23.03079424	          6.68643075	        -11.51154883	          2.00362030	         21.77756850	          0.98750522	         14.58325950	         12.39529223	         26.29873749	
          1.73000000	        -23.00403119	          6.75717703	        -11.44902894	          2.04182507	         21.84389980	          0.96525388	         14.55597780	         12.29859121	         26.15630380	
          1.74000000	        -22.97616517	          6.82842288	        -11.38707452	          2.08128180	         21.90692982	          0.94415596	         14.52046089	         12.19801922	         26.01864348	
          1.75000000	        -22.94760821	          6.89949072	        -11.32656044	          2.12160927	         21.96603861	          0.92441777	         14.47577607	         12.09412137	         25.88558628	
          1.76000000	        -22.91877024	          6.96961626	        -11.26835418	          2.16237425	         22.02055577	          0.90626012	         14.42099388	         11.98754133	         25.75702298	
          1.77000000	        -22.89003619	          7.03795684	        -11.21328306	          2.20310090	         22.06975322	          0.88992015	         14.35524136	         11.87901006	         25.63295733	
          1.78000000	        -22.86174185	          7.10360287	        -11.16209866	          2.24328189	         22.11284092	          0.87565248	         14.27775696	         11.76932643	         25.51355417	
          1.79000000	        -22.83415001	          7.16559336	        -11.11544018	          2.28239149	         22.14896710	          0.86372898	         14.18794434	         11.65932986	         25.39918082	
          1.80000000	        -22.80742894	          7.22293607	        -11.07380004	          2.31990042	         22.17722447	          0.85443693	         14.08542060	         11.54986771	         25.29043799	
          1.81000000	        -22.78163612	          7.27463164	        -11.03749520	          2.35529158	         22.19666408	          0.84807494	         13.97005303	         11.44176068	         25.18817551	
          1.82000000	        -22.75671000	          7.31969982	        -11.00664776	          2.38807468	         22.20631813	          0.84494621	         13.84197795	         11.33577034	         25.09348738	
          1.83000000	        -22.73247239	          7.35720507	        -10.98117735	          2.41779734	         22.20523257	          0.84534889	         13.70159600	         11.23257127	         25.00768104	
          1.84000000	        -22.70864275	          7.38627816	        -10.96080643	          2.44405015	         22.19250961	          0.84956333	         13.54954028	         11.13272976	         24.93221727	
          1.85000000	        -22.68486450	          7.40613047	        -10.94507874	          2.46646366	         22.16735747	          0.85783686	         13.38661611	         11.03669005	         24.86862115	
          1.86000000	        -22.66074208	          7.41605840	        -10.93339111	          2.48469675	         22.12914262	          0.87036779	         13.21371383	         10.94477049	         24.81836804	
          1.87000000	        -22.63588546	          7.41544144	        -10.92503806	          2.49842031	         22.07743941	          0.88728988	         13.03170097	         10.85716933	         24.78275436	
